#!OML:ASF H:\LiuWeirdWalks\Patient Classification 1\Patient 1\Session 1\male.ASF
:FULLY-SPECIFIED
:DEGREES
162
root 1.55369 17.6991 -31.5752 -0.230139 5.10762 -2.08562
lowerback 9.47077 2.67615 -1.50653
upperback -0.380053 3.37913 -0.258726
thorax -5.78098 1.70329 0.0909934
lowerneck -17.9573 -2.30221 12
upperneck 21.0694 -5.38758 -5.1813
head 9.12241 -2.14153 -4.45548
rclavicle 1.41386e-014 -2.38542e-015
rhumerus -40.1484 -20.6369 -73.6445
rradius 32.3868
rwrist -6.23744
rhand -15.6032 -3.49173
rfingers 7.12502
rthumb 10.5829 -33.2053
lclavicle 1.41386e-014 -2.38542e-015
lhumerus -35.0199 -9.4072 83.8389
lradius 29.3483
lwrist 6.54009
lhand -12.8274 -2.40266
lfingers 7.12502
lthumb 13.2596 27.1556
rfemur -24.8072 -8.95968 15.3385
rtibia 71.7129
rfoot 10.5083 -11.0492
rtoes -1.63511
lfemur -8.68947 0.841121 -24.9641
ltibia 30.038
lfoot -14.6067 14.5566
ltoes -6.48642
163
root 1.55787 17.6996 -31.5726 -0.157572 5.08641 -2.09766
lowerback 9.49733 2.74888 -1.42669
upperback -0.323955 3.48034 -0.334312
thorax -5.72897 1.74928 -0.0464736
lowerneck -18.155 -2.36693 12.0626
upperneck 21.0899 -5.54309 -5.09339
head 9.15309 -2.19833 -4.459
rclavicle -3.24019e-014 5.96354e-015
rhumerus -40.0327 -20.7684 -73.784
rradius 32.606
rwrist -6.34769
rhand -15.626 -3.51946
rfingers 7.12502
rthumb 10.561 -33.2341
lclavicle -3.24019e-014 5.96354e-015
lhumerus -34.8975 -9.71823 83.8493
lradius 29.2502
lwrist 6.54855
lhand -12.799 -2.4616
lfingers 7.12502
lthumb 13.287 27.0949
rfemur -24.8511 -8.96902 15.3549
rtibia 71.6818
rfoot 10.4546 -11.0615
rtoes -1.6251
lfemur -8.78694 0.930358 -24.9561
ltibia 30.0914
lfoot -14.6367 14.4938
ltoes -6.56643
164
root 1.5625 17.6999 -31.5694 -0.0846102 5.03751 -2.11544
lowerback 9.51505 2.79123 -1.3751
upperback -0.271462 3.54072 -0.36442
thorax -5.67944 1.77682 -0.11449
lowerneck -18.3653 -2.33853 12.1726
upperneck 21.1335 -5.55857 -5.12099
head 9.20154 -2.19817 -4.49649
rclavicle -5.90639e-014 2.10712e-014
rhumerus -39.8715 -20.7362 -73.9379
rradius 32.8052
rwrist -6.48605
rhand -15.6595 -3.58208
rfingers 7.12502
rthumb 10.5287 -33.2984
lclavicle -5.90639e-014 2.10712e-014
lhumerus -34.8116 -9.84756 83.8604
lradius 29.1501
lwrist 6.48792
lhand -12.7991 -2.44024
lfingers 7.12502
lthumb 13.2869 27.1162
rfemur -24.9002 -8.95543 15.377
rtibia 71.6467
rfoot 10.4167 -11.0598
rtoes -1.60962
lfemur -8.88346 1.02963 -24.943
ltibia 30.1479
lfoot -14.6707 14.4386
ltoes -6.6487
165
root 1.56715 17.7002 -31.5656 -0.0213208 4.97779 -2.13112
lowerback 9.54267 2.86282 -1.32261
upperback -0.251455 3.63894 -0.408632
thorax -5.66894 1.82288 -0.204758
lowerneck -18.3764 -2.41967 12.1628
upperneck 21.0878 -5.69391 -5.01424
head 9.17947 -2.25171 -4.47103
rclavicle -3.26007e-014 4.77083e-015
rhumerus -39.8157 -20.7675 -74.0431
rradius 33.0029
rwrist -6.63199
rhand -15.6962 -3.66014
rfingers 7.12502
rthumb 10.4932 -33.3782
lclavicle -3.26007e-014 4.77083e-015
lhumerus -34.7899 -10.0739 83.8954
lradius 29.0647
lwrist 6.44153
lhand -12.8166 -2.32744
lfingers 7.12502
lthumb 13.2699 27.2301
rfemur -24.9384 -8.93125 15.3952
rtibia 71.6092
rfoot 10.3892 -11.049
rtoes -1.5955
lfemur -8.96428 1.12666 -24.9318
ltibia 30.2011
lfoot -14.7013 14.3886
ltoes -6.74034
166
root 1.5718 17.7005 -31.5616 0.0303619 4.92039 -2.1265
lowerback 9.51101 2.69109 -1.53678
upperback -0.214708 3.40148 -0.157265
thorax -5.6382 1.71574 0.213519
lowerneck -18.3021 -2.07842 12.1373
upperneck 21.0145 -5.12004 -5.3619
head 9.1821 -2.02907 -4.51966
rclavicle 7.90169e-015 1.59028e-015
rhumerus -39.4242 -19.809 -74.1916
rradius 33.0813
rwrist -6.81764
rhand -15.7258 -3.72645
rfingers 7.12502
rthumb 10.4646 -33.446
lclavicle 7.90169e-015 1.59028e-015
lhumerus -34.9552 -9.13385 83.9632
lradius 28.9974
lwrist 6.21388
lhand -12.8183 -2.25419
lfingers 7.12502
lthumb 13.2683 27.3035
rfemur -24.9601 -8.91302 15.385
rtibia 71.5734
rfoot 10.365 -11.03
rtoes -1.56106
lfemur -9.02378 1.21813 -24.9427
ltibia 30.2472
lfoot -14.7231 14.3402
ltoes -6.86709
167
root 1.57619 17.7006 -31.5571 0.0701116 4.88303 -2.10347
lowerback 9.50789 2.54822 -1.72967
upperback -0.183417 3.20112 0.0380508
thorax -5.62193 1.6253 0.554776
lowerneck -18.3074 -1.73665 12.2729
upperneck 21.0036 -4.58863 -5.77374
head 9.21369 -1.81818 -4.62646
rclavicle 1.02871e-014 -7.15625e-015
rhumerus -39.0977 -19.0233 -74.3215
rradius 33.1429
rwrist -6.95891
rhand -15.7495 -3.7723
rfingers 7.12502
rthumb 10.4418 -33.493
lclavicle 1.02871e-014 -7.15625e-015
lhumerus -35.0988 -8.37129 84.0112
lradius 28.9265
lwrist 6.01508
lhand -12.8254 -2.25018
lfingers 7.12502
lthumb 13.2615 27.3079
rfemur -24.9606 -8.91642 15.3485
rtibia 71.5406
rfoot 10.3394 -11.0064
rtoes -1.52004
lfemur -9.06167 1.31206 -24.9698
ltibia 30.2848
lfoot -14.7392 14.269
ltoes -7.02347
168
root 1.5801 17.7009 -31.5529 0.103151 4.86855 -2.08281
lowerback 9.46248 2.14957 -2.17633
upperback -0.146433 2.65019 0.532598
thorax -5.58779 1.37376 1.40338
lowerneck -18.182 -0.992169 12.369
upperneck 20.9457 -3.37225 -6.59219
head 9.26909 -1.33811 -4.78751
rclavicle 1.14301e-014 -5.36719e-015
rhumerus -38.4623 -17.2167 -74.4897
rradius 33.0996
rwrist -7.14911
rhand -15.7637 -3.79949
rfingers 7.12502
rthumb 10.4281 -33.5209
lclavicle 1.14301e-014 -5.36719e-015
lhumerus -35.4463 -6.44446 84.0722
lradius 28.8898
lwrist 5.6461
lhand -12.827 -2.31213
lfingers 7.12502
lthumb 13.26 27.2461
rfemur -24.9495 -8.94179 15.3136
rtibia 71.5098
rfoot 10.3179 -10.9946
rtoes -1.4685
lfemur -9.09201 1.41499 -24.9876
ltibia 30.3176
lfoot -14.7577 14.161
ltoes -7.19415
169
root 1.58338 17.7013 -31.549 0.141758 4.87741 -2.07244
lowerback 9.45216 1.87031 -2.48648
upperback -0.121269 2.26354 0.868096
thorax -5.56516 1.19675 1.9852
lowerneck -18.1231 -0.461254 12.4975
upperneck 20.9532 -2.52281 -7.18451
head 9.33702 -0.998221 -4.91994
rclavicle -2.72583e-014 9.54166e-015
rhumerus -38.0132 -15.9516 -74.6209
rradius 33.0838
rwrist -7.2804
rhand -15.7624 -3.80219
rfingers 7.12502
rthumb 10.4294 -33.5235
lclavicle -2.72583e-014 9.54166e-015
lhumerus -35.6917 -5.13435 84.1029
lradius 28.858
lwrist 5.41355
lhand -12.8216 -2.35339
lfingers 7.12502
lthumb 13.2652 27.2045
rfemur -24.9435 -8.9885 15.2933
rtibia 71.4808
rfoot 10.2941 -10.9984
rtoes -1.43558
lfemur -9.13502 1.51304 -24.9872
ltibia 30.3515
lfoot -14.7753 14.027
ltoes -7.37109
170
root 1.58596 17.702 -31.5454 0.185492 4.91136 -2.0708
lowerback 9.47408 1.69684 -2.67702
upperback -0.120658 2.02226 1.06681
thorax -5.57789 1.08644 2.33506
lowerneck -18.0272 -0.135955 12.6182
upperneck 20.9197 -2.00418 -7.55525
head 9.35742 -0.788816 -5.00816
rclavicle 2.77056e-015 -1.49089e-015
rhumerus -37.7561 -15.1554 -74.7179
rradius 33.1002
rwrist -7.37519
rhand -15.7695 -3.8234
rfingers 7.12502
rthumb 10.4225 -33.5451
lclavicle 2.77056e-015 -1.49089e-015
lhumerus -35.8789 -4.37112 84.1228
lradius 28.826
lwrist 5.28866
lhand -12.8076 -2.43329
lfingers 7.12502
lthumb 13.2786 27.1237
rfemur -24.9412 -9.05686 15.2864
rtibia 71.4521
rfoot 10.2698 -11.0166
rtoes -1.42539
lfemur -9.19318 1.60989 -24.9692
ltibia 30.3919
lfoot -14.8004 13.8599
ltoes -7.53868
171
root 1.58781 17.7031 -31.5421 0.235196 4.96531 -2.08394
lowerback 9.53249 1.78954 -2.59278
upperback -0.117112 2.14709 0.953938
thorax -5.60714 1.14405 2.14974
lowerneck -18.0069 -0.311795 12.6203
upperneck 20.8715 -2.29539 -7.35256
head 9.30789 -0.902902 -4.9678
rclavicle -1.55425e-014 1.98785e-015
rhumerus -37.8238 -15.488 -74.7638
rradius 33.2003
rwrist -7.37878
rhand -15.791 -3.86133
rfingers 7.12502
rthumb 10.4018 -33.584
lclavicle -1.55425e-014 1.98785e-015
lhumerus -35.8209 -4.85429 84.136
lradius 28.7697
lwrist 5.36933
lhand -12.7775 -2.49577
lfingers 7.12502
lthumb 13.3077 27.0593
rfemur -24.9466 -9.13874 15.3022
rtibia 71.424
rfoot 10.2408 -11.0498
rtoes -1.4558
lfemur -9.26864 1.70576 -24.9275
ltibia 30.4376
lfoot -14.8241 13.6671
ltoes -7.71292
172
root 1.5889 17.7043 -31.5391 0.29002 5.0301 -2.09729
lowerback 9.61659 2.02483 -2.3601
upperback -0.126423 2.46755 0.664533
thorax -5.65973 1.29127 1.66634
lowerneck -17.9895 -0.753441 12.5896
upperneck 20.8066 -3.01449 -6.86098
head 9.21411 -1.18752 -4.86777
rclavicle -3.60297e-014 1.19271e-015
rhumerus -38.0939 -16.4337 -74.7798
rradius 33.3426
rwrist -7.33526
rhand -15.8166 -3.90028
rfingers 7.12502
rthumb 10.3771 -33.6242
lclavicle -3.60297e-014 1.19271e-015
lhumerus -35.6603 -6.02442 84.1388
lradius 28.7073
lwrist 5.55815
lhand -12.7216 -2.60229
lfingers 7.12502
lthumb 13.3616 26.9493
rfemur -24.962 -9.22519 15.3238
rtibia 71.399
rfoot 10.2049 -11.0875
rtoes -1.51584
lfemur -9.35678 1.80701 -24.8796
ltibia 30.4877
lfoot -14.8493 13.4514
ltoes -7.88135
173
root 1.58905 17.7054 -31.5362 0.345389 5.10448 -2.09508
lowerback 9.77937 2.54314 -1.85894
upperback -0.134457 3.17307 0.0224534
thorax -5.72898 1.61447 0.603955
lowerneck -18.063 -1.69817 12.5391
upperneck 20.7028 -4.56555 -5.81072
head 9.06073 -1.80185 -4.66074
rclavicle -4.79071e-014 -7.95139e-016
rhumerus -38.693 -18.6009 -74.7446
rradius 33.5596
rwrist -7.18777
rhand -15.8396 -3.91002
rfingers 7.12502
rthumb 10.3549 -33.6351
lclavicle -4.79071e-014 -7.95139e-016
lhumerus -35.2454 -8.54552 84.1028
lradius 28.6374
lwrist 5.97457
lhand -12.6594 -2.6678
lfingers 7.12502
lthumb 13.4215 26.8798
rfemur -24.9795 -9.31318 15.3326
rtibia 71.3781
rfoot 10.1609 -11.125
rtoes -1.59193
lfemur -9.44719 1.91849 -24.8436
ltibia 30.5405
lfoot -14.8731 13.2174
ltoes -8.06234
174
root 1.58841 17.7067 -31.5333 0.400062 5.17482 -2.08831
lowerback 9.91664 2.82478 -1.61278
upperback -0.142279 3.55192 -0.339479
thorax -5.78635 1.78814 0.0256294
lowerneck -18.0412 -2.25792 12.4631
upperneck 20.5907 -5.46682 -5.14931
head 8.9553 -2.15903 -4.5105
rclavicle -2.66868e-014 -7.95139e-016
rhumerus -39.0028 -19.7843 -74.7532
rradius 33.6931
rwrist -7.10804
rhand -15.8546 -3.91043
rfingers 7.12502
rthumb 10.3404 -33.6362
lclavicle -2.66868e-014 -7.95139e-016
lhumerus -35.024 -9.97079 84.0668
lradius 28.598
lwrist 6.20662
lhand -12.6128 -2.79688
lfingers 7.12502
lthumb 13.4665 26.7478
rfemur -25.0004 -9.38914 15.3416
rtibia 71.3594
rfoot 10.1129 -11.164
rtoes -1.65939
lfemur -9.53686 2.04096 -24.8104
ltibia 30.5965
lfoot -14.8925 12.9819
ltoes -8.26928
175
root 1.58729 17.7078 -31.5299 0.453113 5.24267 -2.08746
lowerback 10.0821 3.14226 -1.32524
upperback -0.161956 3.97998 -0.753105
thorax -5.85743 1.98371 -0.640015
lowerneck -18.1127 -2.82088 12.5478
upperneck 20.5489 -6.41739 -4.5414
head 8.8879 -2.53033 -4.41524
rclavicle 6.96243e-014 -1.47101e-014
rhumerus -39.3817 -21.1308 -74.7543
rradius 33.8361
rwrist -7.01887
rhand -15.8666 -3.90413
rfingers 7.12502
rthumb 10.3289 -33.6305
lclavicle 6.96243e-014 -1.47101e-014
lhumerus -34.7837 -11.591 84.0055
lradius 28.5651
lwrist 6.46013
lhand -12.5685 -2.89306
lfingers 7.12502
lthumb 13.5091 26.6488
rfemur -25.0202 -9.45445 15.3606
rtibia 71.3389
rfoot 10.0659 -11.201
rtoes -1.69587
lfemur -9.62335 2.1664 -24.7713
ltibia 30.6556
lfoot -14.9058 12.7548
ltoes -8.49024
